<!DOCTYPE svg PUBLIC "-//W3C//DTD SVG 1.1//EN" "http://www.w3.org/Graphics/SVG/1.1/DTD/svg11.dtd">
<!-- Uploaded to: SVG Repo, www.svgrepo.com, Transformed by: SVG Repo Mixer Tools -->
<svg width="64px" height="64px" viewBox="0 0 24 24" xmlns="http://www.w3.org/2000/svg" fill="#f42593" stroke="#f42593" stroke-width="0.00024000000000000003">
<g id="SVGRepo_bgCarrier" stroke-width="0"/>
<g id="SVGRepo_tracerCarrier" stroke-linecap="round" stroke-linejoin="round" stroke="#CCCCCC" stroke-width="0.144"/>
<g id="SVGRepo_iconCarrier">
<path d="M6 7H3v1h2v9H3v1h5v-1H6zm7.75 0H10v1h3.75a.25.25 0 0 1 .25.25v3.5a.25.25 0 0 1-.25.25h-2.5A1.251 1.251 0 0 0 10 13.25v3.5A1.251 1.251 0 0 0 11.25 18H15v-1h-3.75a.25.25 0 0 1-.25-.25v-3.5a.25.25 0 0 1 .25-.25h2.5A1.251 1.251 0 0 0 15 11.75v-3.5A1.251 1.251 0 0 0 13.75 7zM22 8.25A1.251 1.251 0 0 0 20.75 7H17v1h3.75a.25.25 0 0 1 .25.25V12h-4v1h4v3.75a.25.25 0 0 1-.25.25H17v1h3.75A1.251 1.251 0 0 0 22 16.75z"/>
<path fill="none" d="M0 0h24v24H0z"/>
</g>
</svg>